<svg width="16" height="16" viewBox="0 0 16 16" fill="none" xmlns="http://www.w3.org/2000/svg">
<path d="M14.6667 5.33332C14.6732 5.28687 14.6732 5.23976 14.6667 5.19332V5.13998C14.6552 5.10277 14.6396 5.06699 14.62 5.03332C14.6114 5.01412 14.6002 4.99617 14.5867 4.97998L14.52 4.89332L14.4667 4.85332L14.3867 4.79332L8.38671 1.45998C8.28536 1.40147 8.1704 1.37067 8.05337 1.37067C7.93635 1.37067 7.82139 1.40147 7.72004 1.45998L1.72004 4.79332L1.66004 4.83998L1.58671 4.89332C1.56734 4.91512 1.55158 4.93987 1.54004 4.96665C1.51871 4.98578 1.50069 5.00831 1.48671 5.03332C1.4694 5.06257 1.45595 5.09394 1.44671 5.12665C1.44298 5.14872 1.44298 5.17125 1.44671 5.19332C1.40087 5.23284 1.36249 5.28026 1.33337 5.33332V10.6666C1.33424 10.7854 1.36683 10.9019 1.42778 11.0038C1.48873 11.1058 1.57582 11.1896 1.68004 11.2467L7.68004 14.58C7.70759 14.5961 7.73661 14.6094 7.76671 14.62H7.83337C7.9429 14.6466 8.05719 14.6466 8.16671 14.62H8.23337L8.32671 14.58L14.3267 11.2467C14.4297 11.1888 14.5154 11.1046 14.5752 11.0026C14.6349 10.9007 14.6665 10.7848 14.6667 10.6666V5.33332ZM8.00004 7.91332L3.37337 5.33332L5.21337 4.31998L9.76671 6.91998L8.00004 7.91332ZM8.00004 2.76665L12.6267 5.33332L11.1334 6.16665L6.58004 3.55998L8.00004 2.76665ZM2.66671 6.46665L7.33337 9.07998V12.8666L2.66671 10.2733V6.46665ZM8.66671 12.8666V9.07998L10.6667 7.95998V9.99998L12 9.33332V7.21332L13.3334 6.47332V10.2733L8.66671 12.8666Z" fill="#5C7DE0"/>
</svg>
