<svg width="16" height="16" viewBox="0 0 16 16" fill="none" xmlns="http://www.w3.org/2000/svg">
<path d="M13.2687 5.72401C13.2371 5.65165 13.1929 5.58551 13.1381 5.52868L9.13808 1.52868C9.08125 1.47386 9.0151 1.42962 8.94275 1.39801C8.92275 1.38868 8.90141 1.38334 8.88008 1.37601C8.8243 1.35703 8.76623 1.34559 8.70741 1.34201C8.69341 1.34068 8.68075 1.33334 8.66675 1.33334H4.00008C3.26475 1.33334 2.66675 1.93134 2.66675 2.66668V13.3333C2.66675 14.0687 3.26475 14.6667 4.00008 14.6667H12.0001C12.7354 14.6667 13.3334 14.0687 13.3334 13.3333V6.00001C13.3334 5.98601 13.3261 5.97334 13.3247 5.95868C13.3215 5.89982 13.31 5.84171 13.2907 5.78601C13.2841 5.76468 13.2781 5.74401 13.2687 5.72401ZM11.0574 5.33334H9.33342V3.60934L11.0574 5.33334ZM4.00008 13.3333V2.66668H8.00008V6.00001C8.00008 6.17682 8.07032 6.34639 8.19534 6.47141C8.32037 6.59644 8.48994 6.66668 8.66675 6.66668H12.0001L12.0014 13.3333H4.00008Z" fill="#FF9900"/>
<path d="M5.33325 8.00001H10.6666V9.33334H5.33325V8.00001ZM5.33325 10.6667H10.6666V12H5.33325V10.6667ZM5.33325 5.33334H6.66659V6.66668H5.33325V5.33334Z" fill="#FF9900"/>
</svg>
