<svg width="16" height="16" viewBox="0 0 16 16" fill="none" xmlns="http://www.w3.org/2000/svg">
<circle cx="8" cy="8" r="8" fill="#FF9900"/>
<g clip-path="url(#clip0_1150_215)">
<path fill-rule="evenodd" clip-rule="evenodd" d="M11.0358 5.67807C11.1773 5.67871 11.3158 5.63734 11.4337 5.55918C11.5517 5.48103 11.6438 5.36961 11.6983 5.23906C11.7529 5.10851 11.7675 4.9647 11.7402 4.82586C11.7129 4.68702 11.645 4.55941 11.5452 4.45919C11.4453 4.35896 11.3179 4.29065 11.1792 4.26291C11.0404 4.23517 10.8966 4.24924 10.7658 4.30335C10.6351 4.35746 10.5234 4.44916 10.4448 4.56684C10.3662 4.68452 10.3244 4.82287 10.3245 4.96437C10.3248 5.15359 10.4 5.33499 10.5338 5.46879C10.6676 5.60259 10.849 5.67785 11.0382 5.67807H11.0358ZM5.97559 5.45997L8.16716 3.26922C8.25267 3.18376 8.35417 3.11599 8.46588 3.06977C8.57759 3.02355 8.69731 2.99979 8.8182 2.99985H12.0734C12.3188 2.99985 12.5542 3.09733 12.7277 3.27086C12.9012 3.44439 12.9987 3.67974 12.9987 3.92514V7.18035C12.9988 7.30168 12.9746 7.42181 12.9275 7.53363C12.8804 7.64545 12.8113 7.74669 12.7244 7.83139L10.5386 10.023L5.97559 5.45997Z" fill="white"/>
<path fill-rule="evenodd" clip-rule="evenodd" d="M10.5387 10.023L7.83854 12.7256C7.66314 12.8997 7.4265 12.9982 7.17936 12.9999C7.0575 12.9995 6.93691 12.975 6.8245 12.928C6.71209 12.8809 6.61006 12.8121 6.52425 12.7256L3.27474 9.47609C3.18778 9.39146 3.1187 9.29022 3.07159 9.17839C3.02448 9.06655 3.0003 8.9464 3.00049 8.82505C3.00049 8.70252 3.02472 8.58121 3.07179 8.46808C3.11886 8.35495 3.18783 8.25224 3.27474 8.16587L5.97575 5.46405L10.5387 10.023Z" fill="white"/>
<path fill-rule="evenodd" clip-rule="evenodd" d="M4.85189 11.0565L3.27474 9.47608C3.18778 9.39145 3.1187 9.29021 3.07159 9.17838C3.02448 9.06654 3.0003 8.94639 3.00049 8.82504C3.00049 8.70251 3.02472 8.5812 3.07179 8.46807C3.11886 8.35494 3.18783 8.25223 3.27474 8.16586L5.97575 5.46078L8.20882 7.69467L4.85189 11.0565Z" fill="white"/>
<path fill-rule="evenodd" clip-rule="evenodd" d="M12.6797 3.22446C12.5116 3.07949 12.297 2.99977 12.075 2.99985H8.81982C8.69893 2.99979 8.57922 3.02355 8.46751 3.06977C8.3558 3.11599 8.25429 3.18376 8.16878 3.26922L5.97559 5.45997L8.20866 7.69467L10.4873 5.41603C10.3818 5.28824 10.3242 5.12763 10.3245 4.96192C10.3245 4.77256 10.3997 4.59095 10.5335 4.45697C10.6674 4.323 10.8489 4.24762 11.0382 4.24741C11.2037 4.24709 11.3641 4.30467 11.4915 4.41017L12.6797 3.22446Z" fill="white"/>
<path fill-rule="evenodd" clip-rule="evenodd" d="M9.65983 7.94777C9.65983 7.66079 9.57473 7.38025 9.41529 7.14164C9.25585 6.90302 9.02924 6.71704 8.7641 6.60722C8.49896 6.49739 8.20721 6.46866 7.92574 6.52465C7.64428 6.58063 7.38573 6.71883 7.1828 6.92176C6.97988 7.12468 6.84168 7.38323 6.78569 7.6647C6.72971 7.94617 6.75844 8.23791 6.86826 8.50305C6.97809 8.76819 7.16407 8.99481 7.40268 9.15425C7.6413 9.31368 7.92184 9.39878 8.20882 9.39878C8.59365 9.39878 8.96272 9.24591 9.23484 8.97379C9.50696 8.70168 9.65983 8.33261 9.65983 7.94777Z" fill="white"/>
<path fill-rule="evenodd" clip-rule="evenodd" d="M10.1857 7.52134H8.25619V8.34898H9.36703C9.26693 8.8747 8.82992 9.17662 8.25619 9.17662C7.9282 9.16486 7.61758 9.0263 7.38971 8.79011C7.16184 8.55392 7.0345 8.23853 7.0345 7.91034C7.0345 7.58215 7.16184 7.26676 7.38971 7.03057C7.61758 6.79438 7.9282 6.65582 8.25619 6.64406C8.53724 6.64362 8.80918 6.7438 9.02279 6.92645L9.625 6.30308C9.25221 5.95886 8.76359 5.76742 8.25619 5.76678C7.10791 5.76678 6.18506 6.72219 6.18506 7.91034C6.18506 9.09849 7.10791 10.0531 8.25619 10.0531C9.29134 10.0531 10.2329 9.27427 10.2329 7.91034C10.2313 7.77935 10.2154 7.64893 10.1857 7.52134Z" fill="#FF9900"/>
</g>
<defs>
<clipPath id="clip0_1150_215">
<rect width="10" height="10" fill="white" transform="translate(3.00049 2.99985)"/>
</clipPath>
</defs>
</svg>
