<svg xmlns="http://www.w3.org/2000/svg" width="14" height="14" viewBox="0 0 14 14" fill="none">
  <path d="M9.33272 4.95866H10.4994C10.4994 3.30374 8.89231 2.54891 7.58272 2.37508V1.16699H6.41606V2.37508C5.10647 2.54891 3.49939 3.30374 3.49939 4.95866C3.49939 6.53716 5.05456 7.35791 6.41606 7.54283V10.442C5.57139 10.2956 4.66606 9.84466 4.66606 9.04199H3.49939C3.49939 10.5522 4.91397 11.4447 6.41606 11.6297V12.8337H7.58272V11.6262C8.89231 11.4523 10.4994 10.6969 10.4994 9.04199C10.4994 7.38708 8.89231 6.63224 7.58272 6.45841V3.55866C8.35856 3.69808 9.33272 4.10758 9.33272 4.95866ZM4.66606 4.95866C4.66606 4.10758 5.64022 3.69808 6.41606 3.55866V6.35808C5.61631 6.21049 4.66606 5.77358 4.66606 4.95866ZM9.33272 9.04199C9.33272 9.89308 8.35856 10.3026 7.58272 10.442V7.64199C8.35856 7.78141 9.33272 8.19091 9.33272 9.04199Z" fill="#FF9900"/>
</svg>