<svg width="16" height="16" viewBox="0 0 16 16" fill="none" xmlns="http://www.w3.org/2000/svg">
<circle cx="8" cy="8" r="8" fill="#FF9900"/>
<g clip-path="url(#clip0_650_2663)">
<path fill-rule="evenodd" clip-rule="evenodd" d="M8.10521 7.23774V9.06709H11.13C11.0072 9.85234 10.2153 11.3671 8.10521 11.3671C6.28451 11.3671 4.79906 9.85904 4.79906 8.00036C4.79906 6.14188 6.28451 4.63378 8.10521 4.63378C9.14066 4.63378 9.83456 5.07571 10.2306 5.45643L11.6787 4.06251C10.7495 3.19203 9.54538 2.66663 8.10599 2.66663C5.15793 2.66663 2.77246 5.05209 2.77246 8.00016C2.77246 10.9482 5.15793 13.3337 8.10599 13.3337C11.1834 13.3337 13.2269 11.1691 13.2269 8.12281C13.2269 7.77281 13.1895 7.50626 13.1435 7.23953L8.10599 7.23736L8.10521 7.23776V7.23774Z" fill="white"/>
</g>
<defs>
<clipPath id="clip0_650_2663">
<rect width="10.6667" height="10.6667" fill="white" transform="translate(2.66626 2.66684)"/>
</clipPath>
</defs>
</svg>
