<svg width="10" height="6" viewBox="0 0 10 6" fill="none" xmlns="http://www.w3.org/2000/svg">
<mask id="path-1-inside-1_650_2691" fill="white">
<path d="M1.175 0L5 3.7085L8.825 0L10 1.1417L5 6L0 1.1417L1.175 0Z"/>
</mask>
<path d="M1.175 0L4.22039 -3.14106L1.17168 -6.09691L-1.87381 -3.13773L1.175 0ZM5 3.7085L1.95461 6.84956L5 9.80219L8.04539 6.84956L5 3.7085ZM8.825 0L11.8738 -3.13773L8.82832 -6.09691L5.77961 -3.14106L8.825 0ZM10 1.1417L13.0488 4.27943L16.2781 1.1417L13.0488 -1.99603L10 1.1417ZM5 6L1.95119 9.13773L5 12.1001L8.04881 9.13773L5 6ZM0 1.1417L-3.04881 -1.99603L-6.27806 1.1417L-3.04881 4.27943L0 1.1417ZM-1.87039 3.14106L1.95461 6.84956L8.04539 0.567446L4.22039 -3.14106L-1.87039 3.14106ZM8.04539 6.84956L11.8704 3.14106L5.77961 -3.14106L1.95461 0.567446L8.04539 6.84956ZM5.77619 3.13773L6.95119 4.27943L13.0488 -1.99603L11.8738 -3.13773L5.77619 3.13773ZM6.95119 -1.99603L1.95119 2.86227L8.04881 9.13773L13.0488 4.27943L6.95119 -1.99603ZM8.04881 2.86227L3.04881 -1.99603L-3.04881 4.27943L1.95119 9.13773L8.04881 2.86227ZM3.04881 4.27943L4.22381 3.13773L-1.87381 -3.13773L-3.04881 -1.99603L3.04881 4.27943Z" fill="#FF9900" mask="url(#path-1-inside-1_650_2691)"/>
</svg>
