<svg width="14" height="14" viewBox="0 0 14 14" fill="none" xmlns="http://www.w3.org/2000/svg">
<path d="M13.2707 3.05718L7.27067 0.390511C7.18535 0.352598 7.09303 0.333008 6.99967 0.333008C6.90631 0.333008 6.81398 0.352598 6.72867 0.390511L0.728667 3.05718C0.715334 3.06318 0.706001 3.07318 0.692667 3.08051C0.674001 3.08984 0.654001 3.09584 0.636667 3.10718C0.622001 3.11718 0.610667 3.12984 0.596667 3.14051C0.547936 3.17673 0.505193 3.22037 0.470001 3.26984C0.456667 3.28851 0.442667 3.30518 0.430667 3.32384C0.410825 3.35908 0.39388 3.39587 0.380001 3.43384C0.374001 3.45184 0.364667 3.46851 0.359334 3.48651C0.342591 3.54506 0.333845 3.60561 0.333334 3.66651V10.3332C0.333334 10.5972 0.488001 10.8352 0.729334 10.9425L6.72933 13.6092C6.816 13.6478 6.908 13.6665 7 13.6665C7.09282 13.6641 7.18412 13.6423 7.268 13.6025L7.27067 13.6092L13.2707 10.9425C13.3886 10.8902 13.4888 10.8048 13.5591 10.6966C13.6294 10.5884 13.6668 10.4622 13.6667 10.3332V3.66651C13.6668 3.5375 13.6294 3.41124 13.5591 3.30307C13.4888 3.1949 13.3886 3.10948 13.2707 3.05718ZM7 1.72984L11.3587 3.66651L7 5.60318L6.128 5.21584L2.642 3.66651L7 1.72984ZM1.66667 9.90051V4.69251L6.33333 6.76651V11.9738L1.66667 9.90051ZM7.66667 11.9738V6.76651L12.3333 4.69251V9.90051L7.66667 11.9738Z" fill="#FF9900"/>
</svg>
