<svg width="16" height="16" viewBox="0 0 16 16" fill="none" xmlns="http://www.w3.org/2000/svg">
<path d="M12.6667 1.33334H3.33333C2.598 1.33334 2 1.93134 2 2.66668V13.3333C2 14.0687 2.598 14.6667 3.33333 14.6667H12.6667C13.402 14.6667 14 14.0687 14 13.3333V2.66668C14 1.93134 13.402 1.33334 12.6667 1.33334ZM3.33333 13.3333V2.66668H12.6667L12.6673 13.3333H3.33333Z" fill="#FF9900"/>
<path d="M4.66675 8H6.00008V9.33333H4.66675V8ZM4.66675 10.6667H6.00008V12H4.66675V10.6667ZM7.33341 8H8.66675V9.33333H7.33341V8ZM4.66675 4H11.3334V6.66667H4.66675V4ZM7.33341 10.6667H8.66675V12H7.33341V10.6667ZM10.0001 8H11.3334V12H10.0001V8Z" fill="#FF9900"/>
</svg>
