<svg width="16" height="16" viewBox="0 0 16 16" fill="none" xmlns="http://www.w3.org/2000/svg">
<g clip-path="url(#clip0_1633_10962)">
<path fill-rule="evenodd" clip-rule="evenodd" d="M11.6426 5.21387C11.8124 5.21464 11.9786 5.16499 12.1201 5.0712C12.2616 4.97741 12.3721 4.84372 12.4376 4.68706C12.5031 4.5304 12.5206 4.35783 12.4878 4.19122C12.4551 4.02461 12.3737 3.87147 12.2538 3.75121C12.134 3.63094 11.9811 3.54897 11.8146 3.51568C11.6481 3.48238 11.4755 3.49927 11.3186 3.5642C11.1617 3.62913 11.0276 3.73918 10.9334 3.88039C10.8391 4.02161 10.7889 4.18763 10.7891 4.35742C10.7893 4.58449 10.8796 4.80218 11.0402 4.96273C11.2008 5.12329 11.4184 5.21361 11.6455 5.21387H11.6426ZM5.57031 4.95215L8.2002 2.32324C8.30281 2.2207 8.42462 2.13937 8.55867 2.08391C8.69271 2.02844 8.83638 1.99993 8.98145 2H12.8877C13.1822 2 13.4646 2.11698 13.6728 2.32521C13.8811 2.53345 13.998 2.81587 13.998 3.11035V7.0166C13.9982 7.1622 13.9691 7.30635 13.9126 7.44054C13.856 7.57472 13.7732 7.69622 13.6689 7.79785L11.0459 10.4277L5.57031 4.95215Z" fill="#4285F4"/>
<path fill-rule="evenodd" clip-rule="evenodd" d="M11.0459 10.4277L7.80567 13.6709C7.59518 13.8798 7.31122 13.998 7.01465 14C6.86841 13.9995 6.72371 13.9702 6.58881 13.9137C6.45392 13.8573 6.33149 13.7747 6.22852 13.6709L2.3291 9.77148C2.22475 9.66992 2.14185 9.54843 2.08532 9.41423C2.02879 9.28004 1.99978 9.13585 2 8.99023C2 8.8432 2.02908 8.69762 2.08556 8.56186C2.14204 8.42611 2.22481 8.30286 2.3291 8.19922L5.57031 4.95703L11.0459 10.4277Z" fill="#34A853"/>
<path fill-rule="evenodd" clip-rule="evenodd" d="M4.22168 11.668L2.3291 9.77149C2.22475 9.66992 2.14185 9.54843 2.08532 9.41424C2.02879 9.28004 1.99978 9.13585 2 8.99023C2 8.8432 2.02908 8.69762 2.08556 8.56186C2.14204 8.42611 2.22481 8.30286 2.3291 8.19922L5.57031 4.95312L8.25 7.63379L4.22168 11.668Z" fill="#FBBC05"/>
<path fill-rule="evenodd" clip-rule="evenodd" d="M13.6152 2.26953C13.4135 2.09557 13.156 1.99991 12.8896 2H8.9834C8.83833 1.99993 8.69467 2.02844 8.56062 2.08391C8.42657 2.13937 8.30476 2.2207 8.20215 2.32324L5.57031 4.95215L8.25 7.63379L10.9844 4.89941C10.8578 4.74607 10.7887 4.55334 10.7891 4.35449C10.7891 4.12726 10.8793 3.90932 11.0399 3.74855C11.2004 3.58778 11.4183 3.49733 11.6455 3.49707C11.8441 3.49669 12.0365 3.56579 12.1895 3.69238L13.6152 2.26953Z" fill="#EA4335"/>
<path fill-rule="evenodd" clip-rule="evenodd" d="M9.99121 7.9375C9.99121 7.59312 9.88909 7.25648 9.69776 6.97014C9.50644 6.6838 9.2345 6.46062 8.91633 6.32883C8.59817 6.19704 8.24807 6.16256 7.91031 6.22975C7.57255 6.29693 7.26229 6.46277 7.01878 6.70628C6.77527 6.94979 6.60943 7.26005 6.54225 7.59781C6.47506 7.93557 6.50954 8.28567 6.64133 8.60383C6.77312 8.922 6.99629 9.19394 7.28264 9.38526C7.56898 9.57659 7.90562 9.67871 8.25 9.67871C8.7118 9.67871 9.15468 9.49526 9.48122 9.16872C9.80776 8.84218 9.99121 8.3993 9.99121 7.9375Z" fill="#4285F4"/>
<path fill-rule="evenodd" clip-rule="evenodd" d="M10.6221 7.42578H8.30664V8.41895H9.63965C9.51953 9.0498 8.99512 9.41211 8.30664 9.41211C7.91306 9.398 7.54032 9.23172 7.26687 8.9483C6.99343 8.66487 6.84062 8.28641 6.84062 7.89258C6.84062 7.49875 6.99343 7.12028 7.26687 6.83686C7.54032 6.55343 7.91306 6.38716 8.30664 6.37305C8.64391 6.37252 8.97023 6.49273 9.22656 6.71191L9.94922 5.96387C9.50187 5.5508 8.91553 5.32108 8.30664 5.32031C6.92871 5.32031 5.82129 6.4668 5.82129 7.89258C5.82129 9.31836 6.92871 10.4639 8.30664 10.4639C9.54883 10.4639 10.6787 9.5293 10.6787 7.89258C10.6767 7.73539 10.6577 7.57888 10.6221 7.42578Z" fill="white"/>
</g>
<defs>
<clipPath id="clip0_1633_10962">
<rect width="12" height="12" fill="white" transform="translate(2 2)"/>
</clipPath>
</defs>
</svg>
