<svg width="16" height="16" viewBox="0 0 16 16" fill="none" xmlns="http://www.w3.org/2000/svg">
<path d="M2 2V13.3333C2 13.5101 2.07024 13.6797 2.19526 13.8047C2.32029 13.9298 2.48986 14 2.66667 14H14V12.6667H3.33333V2H2Z" fill="#58B68C"/>
<path d="M10.1954 9.80466C10.2573 9.86662 10.3307 9.91578 10.4116 9.94932C10.4925 9.98286 10.5792 10.0001 10.6667 10.0001C10.7543 10.0001 10.841 9.98286 10.9219 9.94932C11.0027 9.91578 11.0762 9.86662 11.1381 9.80466L14.4714 6.47132L13.5287 5.52866L10.6667 8.39066L9.13806 6.86199C9.0762 6.80003 9.00273 6.75087 8.92186 6.71733C8.84098 6.68379 8.75428 6.66652 8.66673 6.66652C8.57917 6.66652 8.49247 6.68379 8.4116 6.71733C8.33072 6.75087 8.25725 6.80003 8.19539 6.86199L4.86206 10.1953L5.80473 11.138L8.66673 8.27599L10.1954 9.80466Z" fill="#58B68C"/>
</svg>
