<svg width="10" height="6" viewBox="0 0 10 6" fill="none" xmlns="http://www.w3.org/2000/svg">
<mask id="path-1-inside-1_650_2698" fill="white">
<path d="M8.825 6L5 2.2915L1.175 6L0 4.8583L5 0L10 4.8583L8.825 6Z"/>
</mask>
<path d="M8.825 6L5.77961 9.14106L8.82832 12.0969L11.8738 9.13773L8.825 6ZM5 2.2915L8.04539 -0.849558L5 -3.80219L1.95461 -0.849558L5 2.2915ZM1.175 6L-1.87381 9.13773L1.17168 12.0969L4.22039 9.14106L1.175 6ZM0 4.8583L-3.04881 1.72057L-6.27806 4.8583L-3.04881 7.99603L0 4.8583ZM5 0L8.04881 -3.13773L5 -6.10014L1.95119 -3.13773L5 0ZM10 4.8583L13.0488 7.99603L16.2781 4.8583L13.0488 1.72057L10 4.8583ZM11.8704 2.85894L8.04539 -0.849558L1.95461 5.43255L5.77961 9.14106L11.8704 2.85894ZM1.95461 -0.849558L-1.87039 2.85894L4.22039 9.14106L8.04539 5.43255L1.95461 -0.849558ZM4.22381 2.86227L3.04881 1.72057L-3.04881 7.99603L-1.87381 9.13773L4.22381 2.86227ZM3.04881 7.99603L8.04881 3.13773L1.95119 -3.13773L-3.04881 1.72057L3.04881 7.99603ZM1.95119 3.13773L6.95119 7.99603L13.0488 1.72057L8.04881 -3.13773L1.95119 3.13773ZM6.95119 1.72057L5.77619 2.86227L11.8738 9.13773L13.0488 7.99603L6.95119 1.72057Z" fill="#FF9900" mask="url(#path-1-inside-1_650_2698)"/>
</svg>
