<svg width="30" height="30" viewBox="0 0 30 30" fill="none" xmlns="http://www.w3.org/2000/svg">
<g clip-path="url(#clip0_979_1320)">
<path d="M3.75 0.087893C2.27344 0.39258 1.08984 1.32422 0.445311 2.70117C-0.00586112 3.65039 0.0292951 2.58985 0.0292951 15C0.0292951 27.4102 -0.00586112 26.3496 0.445311 27.2988C1.04297 28.5703 2.06836 29.4434 3.43945 29.8359L3.89648 29.9707H15H26.1035L26.5605 29.8359C28.1895 29.3672 29.3672 28.1895 29.8359 26.5605L29.9707 26.1035V15V3.89649L29.8359 3.43946C29.4434 2.06836 28.5703 1.04297 27.2988 0.445315C26.3437 -0.00585699 27.457 0.0292993 15.1465 0.0175805C6.1582 0.0117211 4.06055 0.0234399 3.75 0.087893ZM25.9043 1.81641C26.3906 1.9043 27.0117 2.23828 27.3867 2.61328C27.7617 2.98828 28.0957 3.60938 28.1836 4.09571C28.2187 4.26563 28.2422 5.1211 28.2422 5.98242V7.5586H15H1.75781V5.98242C1.75781 5.1211 1.78125 4.26563 1.8164 4.09571C1.91015 3.59766 2.23828 2.99414 2.61914 2.61328C2.98828 2.25 3.60351 1.91016 4.04297 1.82227C4.42383 1.7461 25.5117 1.74024 25.9043 1.81641ZM28.2422 17.4551C28.2422 22.623 28.2187 25.7051 28.1836 25.9043C27.9844 26.9883 26.9883 27.9844 25.9043 28.1836C25.4707 28.2656 4.5293 28.2656 4.0957 28.1836C3.01172 27.9844 2.01562 26.9883 1.8164 25.9043C1.78125 25.7051 1.75781 22.623 1.75781 17.4551V9.31641H15H28.2422V17.4551Z" fill="#EE3224"/>
<path d="M4.36522 3.81445C3.96678 3.92578 3.69139 4.44727 3.80858 4.86328C3.96092 5.39062 4.1953 5.50781 5.13866 5.50781C5.7246 5.50781 5.85936 5.49023 6.02342 5.39062C6.60936 5.0332 6.58007 4.19531 5.97655 3.87891C5.75389 3.76758 5.63085 3.75 5.12694 3.75586C4.80467 3.75586 4.45897 3.78516 4.36522 3.81445Z" fill="#EE3224"/>
<path d="M8.51368 3.86133C8.15626 4.03126 8.01563 4.27735 8.04493 4.70508C8.06251 5.00391 8.0918 5.06837 8.2793 5.26173L8.4961 5.47852L9.25196 5.4961C9.87305 5.51368 10.0488 5.4961 10.2188 5.41993C10.793 5.14454 10.834 4.30079 10.2949 3.90235C10.1484 3.79688 10.0313 3.7793 9.44532 3.76172C8.86524 3.75001 8.72461 3.76172 8.51368 3.86133Z" fill="#EE3224"/>
<path d="M12.8848 3.80273C12.6035 3.89062 12.4805 3.99023 12.3633 4.21875C12.1465 4.64648 12.2637 5.11523 12.6504 5.37305C12.832 5.49609 12.9199 5.50781 13.5938 5.50781C14.2734 5.50781 14.3555 5.49609 14.5371 5.37305C14.7949 5.20312 14.9707 4.78711 14.918 4.48828C14.8652 4.20703 14.5723 3.88477 14.3086 3.80859C14.0567 3.74414 13.1074 3.73828 12.8848 3.80273Z" fill="#EE3224"/>
<path d="M8.05664 13.2656C7.96289 13.3066 7.81641 13.418 7.73438 13.5C7.59375 13.6523 7.58789 13.6992 7.57031 14.4609C7.55274 15.2227 7.5586 15.2754 7.6875 15.4687C8.05664 16.0254 8.82422 15.9961 9.16406 15.4102C9.31055 15.1641 9.35742 14.4023 9.26367 13.9395C9.13477 13.3359 8.58985 13.0312 8.05664 13.2656Z" fill="#EE3224"/>
<path d="M21.2402 13.2656C20.9238 13.4062 20.7539 13.6641 20.7129 14.0977C20.5898 15.1992 20.8652 15.791 21.5097 15.8613C21.832 15.8906 22.125 15.75 22.3125 15.4687C22.4414 15.2754 22.4472 15.2227 22.4297 14.4609C22.4121 13.7051 22.4062 13.6523 22.2656 13.5C21.9902 13.2012 21.5918 13.1133 21.2402 13.2656Z" fill="#EE3224"/>
<path d="M14.373 16.7285C13.6465 16.8867 12.8203 17.4844 12.7383 17.9062C12.6797 18.2227 12.7617 18.498 12.9785 18.7207C13.3301 19.0664 13.793 19.0664 14.2324 18.7207C14.7598 18.2988 15.2578 18.3047 15.8086 18.75C16.5644 19.3594 17.5898 18.6211 17.1973 17.7539C17.0098 17.3379 16.2832 16.8691 15.5918 16.7227C15.123 16.623 14.8476 16.623 14.373 16.7285Z" fill="#EE3224"/>
</g>
<defs>
<clipPath id="clip0_979_1320">
<rect width="30" height="30" fill="white"/>
</clipPath>
</defs>
</svg>
