<svg width="16" height="16" viewBox="0 0 16 16" fill="none" xmlns="http://www.w3.org/2000/svg">
<circle cx="8" cy="8" r="8" fill="#FF9900"/>
<g clip-path="url(#clip0_650_2668)">
<path fill-rule="evenodd" clip-rule="evenodd" d="M11.0358 5.67807C11.1773 5.67871 11.3158 5.63734 11.4337 5.55918C11.5517 5.48103 11.6438 5.36961 11.6983 5.23906C11.7529 5.10851 11.7675 4.9647 11.7402 4.82586C11.7129 4.68702 11.645 4.55941 11.5452 4.45919C11.4453 4.35896 11.3179 4.29065 11.1792 4.26291C11.0404 4.23517 10.8966 4.24924 10.7658 4.30335C10.6351 4.35746 10.5234 4.44916 10.4448 4.56684C10.3662 4.68452 10.3244 4.82287 10.3245 4.96437C10.3248 5.15359 10.4 5.33499 10.5338 5.46879C10.6676 5.60259 10.849 5.67785 11.0382 5.67807H11.0358ZM5.97559 5.45997L8.16716 3.26922C8.25267 3.18376 8.35417 3.11599 8.46588 3.06977C8.57759 3.02355 8.69731 2.99979 8.8182 2.99985H12.0734C12.3188 2.99985 12.5542 3.09733 12.7277 3.27086C12.9012 3.44439 12.9987 3.67974 12.9987 3.92514V7.18035C12.9988 7.30168 12.9746 7.42181 12.9275 7.53363C12.8804 7.64545 12.8113 7.74669 12.7244 7.83139L10.5386 10.023L5.97559 5.45997Z" fill="white"/>
<path fill-rule="evenodd" clip-rule="evenodd" d="M10.5385 10.023L7.8383 12.7256C7.6629 12.8997 7.42626 12.9982 7.17912 12.9999C7.05726 12.9995 6.93667 12.975 6.82426 12.928C6.71184 12.8809 6.60982 12.8121 6.52401 12.7256L3.2745 9.47609C3.18754 9.39146 3.11846 9.29022 3.07135 9.17839C3.02424 9.06655 3.00006 8.9464 3.00025 8.82505C3.00025 8.70252 3.02448 8.58121 3.07155 8.46808C3.11861 8.35495 3.18759 8.25224 3.2745 8.16587L5.97551 5.46405L10.5385 10.023Z" fill="white"/>
<path fill-rule="evenodd" clip-rule="evenodd" d="M4.85164 11.0565L3.2745 9.47608C3.18754 9.39145 3.11846 9.29021 3.07135 9.17838C3.02424 9.06654 3.00006 8.94639 3.00025 8.82504C3.00025 8.70251 3.02448 8.5812 3.07155 8.46807C3.11861 8.35494 3.18759 8.25223 3.2745 8.16586L5.97551 5.46078L8.20858 7.69467L4.85164 11.0565Z" fill="white"/>
<path fill-rule="evenodd" clip-rule="evenodd" d="M12.6797 3.22446C12.5116 3.07949 12.297 2.99977 12.075 2.99985H8.81982C8.69893 2.99979 8.57922 3.02355 8.46751 3.06977C8.3558 3.11599 8.25429 3.18376 8.16878 3.26922L5.97559 5.45997L8.20866 7.69467L10.4873 5.41603C10.3818 5.28824 10.3242 5.12763 10.3245 4.96192C10.3245 4.77256 10.3997 4.59095 10.5335 4.45697C10.6674 4.323 10.8489 4.24762 11.0382 4.24741C11.2037 4.24709 11.3641 4.30467 11.4915 4.41017L12.6797 3.22446Z" fill="white"/>
<path fill-rule="evenodd" clip-rule="evenodd" d="M9.65959 7.94777C9.65959 7.66079 9.57449 7.38025 9.41505 7.14164C9.25561 6.90302 9.02899 6.71704 8.76385 6.60722C8.49872 6.49739 8.20697 6.46866 7.9255 6.52465C7.64403 6.58063 7.38549 6.71883 7.18256 6.92176C6.97963 7.12468 6.84144 7.38323 6.78545 7.6647C6.72946 7.94617 6.7582 8.23791 6.86802 8.50305C6.97784 8.76819 7.16382 8.99481 7.40244 9.15425C7.64106 9.31368 7.9216 9.39878 8.20858 9.39878C8.59341 9.39878 8.96248 9.24591 9.2346 8.97379C9.50671 8.70168 9.65959 8.33261 9.65959 7.94777Z" fill="white"/>
<path fill-rule="evenodd" clip-rule="evenodd" d="M10.1852 7.52134H8.2557V8.34898H9.36654C9.26644 8.8747 8.82943 9.17662 8.2557 9.17662C7.92772 9.16486 7.61709 9.0263 7.38922 8.79011C7.16135 8.55392 7.03401 8.23853 7.03401 7.91034C7.03401 7.58215 7.16135 7.26676 7.38922 7.03057C7.61709 6.79438 7.92772 6.65582 8.2557 6.64406C8.53675 6.64362 8.80869 6.7438 9.0223 6.92645L9.62451 6.30308C9.25172 5.95886 8.76311 5.76742 8.2557 5.76678C7.10742 5.76678 6.18457 6.72219 6.18457 7.91034C6.18457 9.09849 7.10742 10.0531 8.2557 10.0531C9.29085 10.0531 10.2324 9.27427 10.2324 7.91034C10.2308 7.77935 10.2149 7.64893 10.1852 7.52134Z" fill="#FF9900"/>
</g>
<defs>
<clipPath id="clip0_650_2668">
<rect width="10" height="10" fill="white" transform="translate(3.00024 2.99985)"/>
</clipPath>
</defs>
</svg>
